# xmcd CD database file
#
# Track frame offsets:
#	183
#	96470
#	127080
#	151038
#	167818
#
# Disc length: 2622 seconds
#
# Revision: 3
# Processed by: cddbd v1.5.2PL0 Copyright (c) Steve Scherf et al.
# Submitted via: jetAudio 7
#
DISCID=3b0a3c05
DTITLE=Stephan Micus - Implosions
DYEAR=1977
DGENRE=Jazz
TTITLE0=As I Crossed a Bridge of Dreams
TTITLE1=Borkenkind
TTITLE2=Amarchaj
TTITLE3=For the Beautiful Changing Child
TTITLE4=For M'schr and Djingis Khan
EXTD=YEAR: 1977
EXTT0=
EXTT1=
EXTT2=
EXTT3=
EXTT4=
PLAYORDER=
